<svg width="11" height="21" viewBox="0 0 11 21" fill="none" xmlns="http://www.w3.org/2000/svg">
<g id="element">
<path id="Vector" d="M0.177068 0.0157067L4.88559 3.03782C5.27908 3.29037 5.51697 3.7272 5.51697 4.19716V10.3157C5.51697 10.394 5.4307 10.4417 5.36487 10.3995L0.682782 7.39651C0.29078 7.14546 0.0528829 6.71065 0.0508879 6.24319L0.0244598 0.100058C0.0249586 0.0212293 0.111236 -0.0264693 0.177068 0.0157067Z" fill="#FF5C06"/>
<path id="Vector_2" d="M0.152614 20.9843L10.3686 14.4274C10.7621 14.1749 11 13.738 11 13.2681V7.14955C11 7.07123 10.9137 7.02353 10.8479 7.0657L5.5 10.4965L0.631894 13.6196C0.238395 13.8721 0 14.3089 0 14.7789V20.8999C0.00049873 20.9788 0.086782 21.0265 0.152614 20.9843Z" fill="#FF5C06"/>
</g>
</svg>
