<svg width="11" height="21" viewBox="0 0 11 21" fill="none" xmlns="http://www.w3.org/2000/svg">
<path d="M0.177022 0.0157067L4.88554 3.03782C5.27904 3.29037 5.51693 3.7272 5.51693 4.19716V10.3157C5.51693 10.394 5.43065 10.4417 5.36482 10.3995L0.682736 7.39651C0.290734 7.14546 0.0528371 6.71065 0.0508422 6.24319L0.0244141 0.100058C0.0249128 0.0212293 0.11119 -0.0264693 0.177022 0.0157067Z" fill="#FF5C06"/>
<path d="M0.152614 20.9841L10.3686 14.4272C10.7621 14.1747 11 13.7379 11 13.2679V7.14937C11 7.07104 10.9137 7.02334 10.8479 7.06552L5.5 10.4963L0.631894 13.6194C0.238395 13.8719 0 14.3087 0 14.7787V20.8997C0.00049873 20.9786 0.086782 21.0263 0.152614 20.9841Z" fill="#FF5C06"/>
</svg>
