<svg width="373" height="539" viewBox="0 0 373 539" fill="none" xmlns="http://www.w3.org/2000/svg">
<path d="M6.00404 0.403137L165.666 77.9706C179.009 84.4529 187.075 95.6647 187.075 107.727V264.769C187.075 266.78 184.15 268.004 181.918 266.921L23.1523 189.844C9.85988 183.4 1.79302 172.24 1.72538 160.242L0.829224 2.56816C0.846135 0.544886 3.77172 -0.67938 6.00404 0.403137Z" fill="#065157" fill-opacity="0.64"/>
<path d="M5.17502 538.596L351.59 370.303C364.933 363.821 373 352.609 373 340.547V183.505C373 181.494 370.074 180.27 367.842 181.353L186.5 269.41L21.4269 349.568C8.08377 356.05 0 367.262 0 379.324V536.431C0.0169115 538.454 2.9427 539.679 5.17502 538.596Z" fill="#065157" fill-opacity="0.64"/>
</svg>
