<svg width="1506" height="379" viewBox="0 0 1506 379" fill="none" xmlns="http://www.w3.org/2000/svg">
<path d="M49.2208 55.9032V299.832H23V55.9032H49.2208Z" fill="#061D30"/>
<path d="M146.451 302.796C134.593 302.796 124.703 300.739 116.798 296.634C108.893 292.528 102.623 287.193 97.9882 280.635C93.3531 274.078 90.0834 266.981 88.1521 259.328C86.2297 251.684 85.2686 244.318 85.2686 237.248C85.2686 233.296 85.2686 229.209 85.2686 224.996C85.2686 220.783 85.2686 216.543 85.2686 212.276V134.09H111.957V208.845C111.957 212.698 111.957 216.489 111.957 220.235C111.957 223.981 111.957 227.52 111.957 230.844C111.957 239.269 113.124 247.075 115.469 254.253C117.813 261.43 121.891 267.233 127.721 271.652C133.551 276.072 141.555 278.282 151.759 278.282C161.335 278.282 169.707 275.398 176.884 269.622C184.062 263.846 189.685 256.615 193.736 247.929C197.796 239.242 199.826 230.583 199.826 221.942L215.277 228.337C215.277 237.491 213.66 246.465 210.435 255.259C207.21 264.053 202.602 272.039 196.62 279.216C190.637 286.393 183.406 292.115 174.926 296.382C166.446 300.658 156.951 302.796 146.451 302.796ZM199.826 299.832V134.09H226.362V299.832H199.826Z" fill="#061D30"/>
<path d="M260.065 299.832V134.09H286.601V184.968L277.86 181.842C278.48 175.707 280.043 169.644 282.54 163.661C285.038 157.679 288.496 152.271 292.916 147.429C297.335 142.587 302.878 138.743 309.534 135.877C316.19 133.021 323.996 131.583 332.943 131.583C339.599 131.583 345.034 132.131 349.256 133.218C353.478 134.305 356.092 135.168 357.134 135.796L350.271 161.856C349.229 161.128 347.127 160.194 343.947 159.044C340.776 157.903 336.276 157.328 330.446 157.328C321.804 157.328 314.654 158.891 308.986 162.008C303.318 165.125 298.844 169.266 295.566 174.414C292.287 179.561 289.969 185.157 288.622 191.193C287.265 197.23 286.592 203.212 286.592 209.141V299.832H260.065Z" fill="#061D30"/>
<path d="M378.674 227.574V203.85H506.805L502.125 211.657C502.125 211.037 502.125 210.435 502.125 209.86C502.125 209.285 502.125 208.746 502.125 208.225C502.125 198.658 500.122 189.891 496.116 181.932C492.109 173.974 486.154 167.605 478.249 162.817C470.344 158.029 460.562 155.64 448.911 155.64C437.153 155.64 426.804 158.137 417.857 163.131C408.911 168.126 401.94 175.177 396.945 184.277C391.951 193.385 389.454 204.228 389.454 216.813C389.454 229.613 391.87 240.635 396.712 249.896C401.554 259.158 408.443 266.281 417.39 271.275C426.337 276.27 436.946 278.767 449.225 278.767C457.966 278.767 465.556 277.86 472.015 276.036C478.464 274.222 483.8 271.769 488.013 268.697C492.226 265.625 495.424 262.275 497.616 258.628C499.799 254.99 501.101 251.343 501.514 247.705H528.05C527.529 254.361 525.445 260.972 521.807 267.521C518.16 274.078 513.012 280.034 506.356 285.387C499.7 290.75 491.525 295.035 481.851 298.26C472.176 301.485 461.038 303.102 448.453 303.102C431.808 303.102 417.139 299.463 404.446 292.178C391.753 284.893 381.791 274.806 374.56 261.897C367.329 248.998 363.709 234.167 363.709 217.414C363.709 200.455 367.347 185.552 374.632 172.698C381.917 159.853 391.96 149.783 404.751 142.498C417.552 135.213 432.167 131.575 448.606 131.575C465.359 131.575 479.866 135.222 492.145 142.498C504.425 149.783 513.893 159.745 520.549 172.384C527.205 185.022 530.538 199.413 530.538 215.537C530.538 217.199 530.484 219.391 530.385 222.095C530.277 224.798 530.125 226.622 529.918 227.556H378.674V227.574Z" fill="#061D30"/>
<path d="M554.405 299.832V134.09H602.787V299.832H554.405ZM671.137 299.832V229.442C671.137 225.49 671.137 221.897 671.137 218.672C671.137 215.447 671.137 212.537 671.137 209.932C671.137 203.069 670.248 196.799 668.487 191.122C666.717 185.454 663.546 180.899 658.965 177.468C654.384 174.036 647.782 172.321 639.149 172.321C631.657 172.321 625.181 174.036 619.719 177.468C614.258 180.899 610.072 185.687 607.152 191.822C604.242 197.967 602.787 205.036 602.787 213.049L589.366 203.374C589.366 189.02 592.492 176.426 598.726 165.611C604.97 154.795 613.422 146.315 624.085 140.171C634.748 134.036 646.587 130.964 659.594 130.964C673.221 130.964 684.431 133.695 693.226 139.156C702.02 144.618 708.568 152.217 712.889 161.946C717.21 171.674 719.366 183.037 719.366 196.044C719.366 201.353 719.366 207.282 719.366 213.839C719.366 220.397 719.366 227.107 719.366 233.97V299.832H671.137Z" fill="#061D30"/>
<path d="M761.809 231.473V199.476H871.678L866.998 207.587C866.998 206.752 866.998 205.952 866.998 205.171C866.998 204.389 866.998 203.635 866.998 202.907C866.998 196.979 865.597 191.283 862.785 185.822C859.973 180.36 855.635 175.887 849.751 172.402C843.876 168.916 836.358 167.174 827.195 167.174C818.042 167.174 810.155 169.123 803.552 173.03C796.941 176.929 791.902 182.525 788.416 189.81C784.931 197.095 783.188 205.89 783.188 216.184C783.188 226.793 784.877 235.874 788.264 243.42C791.641 250.965 796.689 256.759 803.4 260.819C810.11 264.88 818.464 266.91 828.444 266.91C834.893 266.91 840.463 266.308 845.143 265.113C849.823 263.918 853.649 262.382 856.614 260.505C859.578 258.637 861.842 256.553 863.405 254.262C864.968 251.971 865.902 249.735 866.217 247.552H913.969C913.349 254.522 910.951 261.367 906.792 268.078C902.633 274.788 896.857 280.824 889.473 286.178C882.08 291.541 873.106 295.781 862.551 298.898C851.988 302.015 839.942 303.578 826.423 303.578C808.107 303.578 792.135 299.913 778.508 292.574C764.881 285.235 754.318 275.093 746.826 262.14C739.334 249.187 735.588 234.23 735.588 217.271C735.588 200.105 739.415 185.04 747.059 172.087C754.704 159.134 765.366 149.046 779.056 141.806C792.737 134.575 808.574 130.964 826.575 130.964C844.99 130.964 860.908 134.629 874.328 141.968C887.748 149.307 898.105 159.556 905.382 172.716C912.667 185.876 916.305 201.2 916.305 218.681C916.305 221.286 916.251 223.783 916.152 226.173C916.044 228.571 915.891 230.332 915.685 231.482H761.809V231.473Z" fill="#061D30"/>
<path d="M1002.93 303.578C993.036 303.578 983.523 302.428 974.37 300.146C965.216 297.856 957.024 294.478 949.793 290.005C942.562 285.531 936.84 279.935 932.627 273.225C928.414 266.515 926.303 258.69 926.303 249.735C926.303 249.321 926.303 248.827 926.303 248.252C926.303 247.678 926.303 247.237 926.303 246.923H974.37C974.37 247.237 974.37 247.57 974.37 247.938C974.37 248.306 974.37 248.693 974.37 249.106C974.37 255.142 977.047 259.562 982.409 262.373C987.763 265.185 995.021 266.586 1004.18 266.586C1008.97 266.586 1013.57 266.092 1018 265.104C1022.42 264.116 1026.06 262.508 1028.92 260.262C1031.78 258.026 1033.22 255.187 1033.22 251.756C1033.22 246.24 1030.17 242.342 1024.09 240.051C1018 237.761 1008.25 235.47 994.824 233.188C987.224 231.94 979.526 230.17 971.729 227.879C963.923 225.589 956.745 222.553 950.188 218.753C943.631 214.953 938.376 210.12 934.423 204.237C930.471 198.362 928.494 191.203 928.494 182.777C928.494 171.539 931.899 162.071 938.717 154.373C945.526 146.675 954.608 140.845 965.953 136.893C977.289 132.94 989.775 130.964 1003.41 130.964C1016.42 130.964 1028.54 133.12 1039.77 137.44C1051.01 141.761 1060.11 147.95 1067.08 156.008C1074.05 164.075 1077.54 173.776 1077.54 185.112C1077.54 185.319 1077.54 185.633 1077.54 186.046C1077.54 186.46 1077.54 186.882 1077.54 187.295H1029.94C1029.94 186.882 1029.94 186.514 1029.94 186.199C1029.94 185.885 1029.94 185.624 1029.94 185.418C1029.94 181.259 1028.61 177.872 1025.96 175.276C1023.31 172.68 1019.95 170.722 1015.89 169.419C1011.83 168.117 1007.62 167.47 1003.25 167.47C999.297 167.47 995.21 167.91 990.997 168.799C986.784 169.689 983.218 171.144 980.307 173.165C977.397 175.195 975.942 178.034 975.942 181.672C975.942 185.211 977.505 188.095 980.622 190.331C983.739 192.568 988.113 194.392 993.728 195.793C999.342 197.194 1005.85 198.524 1013.24 199.772C1020.21 200.922 1027.57 202.503 1035.32 204.533C1043.07 206.563 1050.36 209.429 1057.16 213.121C1063.97 216.813 1069.5 221.654 1073.71 227.637C1077.92 233.619 1080.03 241.192 1080.03 250.345C1080.03 259.813 1077.85 267.934 1073.48 274.689C1069.11 281.453 1063.2 286.941 1055.76 291.154C1048.33 295.367 1040.05 298.493 1030.95 300.514C1021.83 302.563 1012.5 303.578 1002.93 303.578Z" fill="#061D30"/>
<path d="M1166.64 303.578C1156.75 303.578 1147.24 302.428 1138.08 300.146C1128.93 297.856 1120.74 294.478 1113.5 290.005C1106.27 285.531 1100.55 279.935 1096.34 273.225C1092.13 266.515 1090.01 258.69 1090.01 249.735C1090.01 249.321 1090.01 248.827 1090.01 248.252C1090.01 247.678 1090.01 247.237 1090.01 246.923H1138.08C1138.08 247.237 1138.08 247.57 1138.08 247.938C1138.08 248.306 1138.08 248.693 1138.08 249.106C1138.08 255.142 1140.76 259.562 1146.12 262.373C1151.48 265.185 1158.73 266.586 1167.9 266.586C1172.68 266.586 1177.28 266.092 1181.71 265.104C1186.13 264.116 1189.77 262.508 1192.63 260.262C1195.49 258.026 1196.93 255.187 1196.93 251.756C1196.93 246.24 1193.88 242.342 1187.8 240.051C1181.71 237.761 1171.96 235.47 1158.54 233.188C1150.94 231.94 1143.24 230.17 1135.44 227.879C1127.63 225.589 1120.46 222.553 1113.9 218.753C1107.34 214.953 1102.09 210.12 1098.14 204.237C1094.18 198.362 1092.21 191.203 1092.21 182.777C1092.21 171.539 1095.61 162.071 1102.43 154.373C1109.24 146.675 1118.32 140.845 1129.66 136.893C1141 132.94 1153.49 130.964 1167.12 130.964C1180.13 130.964 1192.25 133.12 1203.49 137.44C1214.72 141.761 1223.82 147.95 1230.79 156.008C1237.76 164.075 1241.25 173.776 1241.25 185.112C1241.25 185.319 1241.25 185.633 1241.25 186.046C1241.25 186.46 1241.25 186.882 1241.25 187.295H1193.65C1193.65 186.882 1193.65 186.514 1193.65 186.199C1193.65 185.885 1193.65 185.624 1193.65 185.418C1193.65 181.259 1192.32 177.872 1189.67 175.276C1187.02 172.68 1183.66 170.722 1179.6 169.419C1175.54 168.117 1171.33 167.47 1166.96 167.47C1163.01 167.47 1158.92 167.91 1154.71 168.799C1150.5 169.689 1146.93 171.144 1144.02 173.165C1141.11 175.195 1139.65 178.034 1139.65 181.672C1139.65 185.211 1141.22 188.095 1144.33 190.331C1147.45 192.568 1151.83 194.392 1157.44 195.793C1163.05 197.194 1169.56 198.524 1176.95 199.772C1183.92 200.922 1191.28 202.503 1199.03 204.533C1206.78 206.563 1214.07 209.429 1220.88 213.121C1227.69 216.813 1233.21 221.654 1237.42 227.637C1241.64 233.619 1243.75 241.192 1243.75 250.345C1243.75 259.813 1241.56 267.934 1237.19 274.689C1232.82 281.453 1226.91 286.941 1219.47 291.154C1212.04 295.367 1203.76 298.493 1194.66 300.514C1185.55 302.563 1176.21 303.578 1166.64 303.578Z" fill="#061D30"/>
<path d="M1311.06 0.757809L1395.87 54.8254C1402.96 59.3437 1407.24 67.1588 1407.24 75.5667V185.031C1407.24 186.433 1405.69 187.286 1404.5 186.531L1320.17 132.805C1313.11 128.314 1308.83 120.535 1308.79 112.172L1308.32 2.26692C1308.32 0.856613 1309.88 0.00325266 1311.06 0.757809Z" fill="#FF5C06"/>
<path d="M1310.62 375.907L1494.63 258.6C1501.72 254.082 1506 246.267 1506 237.859V128.395C1506 126.993 1504.45 126.14 1503.26 126.894L1406.94 188.274L1319.26 244.147C1312.17 248.665 1307.88 256.481 1307.88 264.888V374.398C1307.88 375.808 1309.44 376.662 1310.62 375.907Z" fill="#FF5C06"/>
</svg>
