<svg width="181" height="47" viewBox="0 0 181 47" fill="none" xmlns="http://www.w3.org/2000/svg">
<path d="M3.48112 7.3667V37.2886H0.294922V7.3667H3.48112Z" fill="white"/>
<path d="M15.2958 37.6522C13.855 37.6522 12.6532 37.3998 11.6926 36.8963C10.7321 36.3927 9.97018 35.7382 9.40695 34.9338C8.84371 34.1294 8.44639 33.2589 8.21171 32.3201C7.97812 31.3824 7.86133 30.4788 7.86133 29.6117C7.86133 29.1268 7.86133 28.6255 7.86133 28.1087C7.86133 27.5919 7.86133 27.0718 7.86133 26.5484V16.9575H11.1043V26.1275C11.1043 26.6002 11.1043 27.0652 11.1043 27.5247C11.1043 27.9842 11.1043 28.4183 11.1043 28.826C11.1043 29.8596 11.2462 30.8171 11.5311 31.6975C11.816 32.5779 12.3115 33.2898 13.0199 33.8319C13.7283 34.374 14.7009 34.6451 15.9409 34.6451C17.1045 34.6451 18.1218 34.2914 18.9939 33.5829C19.8661 32.8744 20.5494 31.9873 21.0416 30.9218C21.535 29.8563 21.7817 28.794 21.7817 27.734L23.6591 28.5186C23.6591 29.6414 23.4627 30.7422 23.0708 31.8209C22.6789 32.8997 22.119 33.8793 21.392 34.7597C20.6651 35.6401 19.7864 36.342 18.756 36.8654C17.7255 37.3899 16.5718 37.6522 15.2958 37.6522ZM21.7817 37.2885V16.9575H25.0061V37.2885H21.7817Z" fill="white"/>
<path d="M29.1016 37.2886V16.9576H32.326V23.1987L31.2639 22.8152C31.3392 22.0626 31.5291 21.3189 31.8326 20.585C32.136 19.8511 32.5563 19.1878 33.0933 18.5939C33.6304 18 34.3038 17.5284 35.1127 17.1768C35.9215 16.8264 36.87 16.6501 37.9572 16.6501C38.766 16.6501 39.4264 16.7174 39.9394 16.8507C40.4525 16.984 40.7701 17.0898 40.8967 17.1669L40.0628 20.3635C39.9362 20.2743 39.6807 20.1597 39.2943 20.0186C38.909 19.8787 38.3622 19.8082 37.6538 19.8082C36.6037 19.8082 35.7348 19.9999 35.0461 20.3823C34.3573 20.7646 33.8137 21.2726 33.4153 21.904C33.0169 22.5354 32.7353 23.2218 32.5716 23.9623C32.4067 24.7028 32.3249 25.4366 32.3249 26.1639V37.2886H29.1016Z" fill="white"/>
<path d="M43.5143 28.425V25.5149H59.084L58.5153 26.4724C58.5153 26.3964 58.5153 26.3226 58.5153 26.252C58.5153 26.1815 58.5153 26.1154 58.5153 26.0515C58.5153 24.878 58.2719 23.8025 57.7851 22.8263C57.2982 21.85 56.5745 21.0687 55.614 20.4814C54.6534 19.8941 53.4648 19.601 52.049 19.601C50.6202 19.601 49.3628 19.9073 48.2756 20.52C47.1884 21.1326 46.3414 21.9976 45.7345 23.1138C45.1276 24.2312 44.8241 25.5612 44.8241 27.1049C44.8241 28.6751 45.1178 30.0271 45.7061 31.1632C46.2944 32.2992 47.1317 33.173 48.2188 33.7857C49.306 34.3983 50.5951 34.7047 52.0872 34.7047C53.1493 34.7047 54.0716 34.5934 54.8565 34.3697C55.6402 34.1471 56.2886 33.8463 56.8005 33.4694C57.3124 33.0926 57.701 32.6816 57.9673 32.2342C58.2326 31.7879 58.3909 31.3406 58.4411 30.8943H61.6655C61.6022 31.7108 61.3489 32.5218 60.9069 33.3251C60.4637 34.1295 59.8382 34.86 59.0294 35.5167C58.2206 36.1746 57.2273 36.7002 56.0517 37.0958C54.8761 37.4913 53.5226 37.6897 51.9934 37.6897C49.9707 37.6897 48.1883 37.2434 46.6459 36.3498C45.1036 35.4561 43.8931 34.2187 43.0144 32.6353C42.1357 31.053 41.6958 29.2338 41.6958 27.1787C41.6958 25.0984 42.1379 23.2703 43.0231 21.6935C43.9084 20.1178 45.1287 18.8826 46.683 17.9889C48.2385 17.0953 50.0144 16.649 52.0119 16.649C54.0476 16.649 55.8105 17.0964 57.3026 17.9889C58.7947 18.8826 59.9452 20.1046 60.754 21.6549C61.5629 23.2053 61.9678 24.9705 61.9678 26.9484C61.9678 27.1523 61.9613 27.4211 61.9493 27.7528C61.9362 28.0845 61.9176 28.3082 61.8925 28.4228H43.5143V28.425Z" fill="white"/>
<path d="M64.8682 37.2886V16.9576H70.7472V37.2886H64.8682ZM79.0527 37.2886V28.6541C79.0527 28.1693 79.0527 27.7286 79.0527 27.333C79.0527 26.9374 79.0527 26.5804 79.0527 26.2608C79.0527 25.419 78.9446 24.6499 78.7307 23.9535C78.5157 23.2582 78.1303 22.6995 77.5737 22.2786C77.017 21.8577 76.2147 21.6472 75.1657 21.6472C74.2554 21.6472 73.4684 21.8577 72.8047 22.2786C72.1411 22.6995 71.6324 23.2868 71.2777 24.0394C70.924 24.7931 70.7472 25.6603 70.7472 26.6432L69.1164 25.4564C69.1164 23.6956 69.4963 22.1508 70.2538 20.8241C71.0124 19.4974 72.0396 18.4572 73.3352 17.7035C74.6309 16.9509 76.0695 16.5741 77.6501 16.5741C79.3059 16.5741 80.6682 16.9091 81.7368 17.579C82.8054 18.249 83.6011 19.1812 84.1262 20.3745C84.6512 21.5679 84.9131 22.9618 84.9131 24.5573C84.9131 25.2085 84.9131 25.9358 84.9131 26.7402C84.9131 27.5445 84.9131 28.3676 84.9131 29.2095V37.2886H79.0527Z" fill="white"/>
<path d="M90.0705 28.9032V24.9782H103.421L102.852 25.9732C102.852 25.8708 102.852 25.7727 102.852 25.6768C102.852 25.581 102.852 25.4884 102.852 25.3991C102.852 24.6719 102.682 23.9733 102.34 23.3034C101.999 22.6334 101.472 22.0847 100.757 21.6571C100.043 21.2296 99.1291 21.0158 98.0158 21.0158C96.9035 21.0158 95.9451 21.2549 95.1429 21.7343C94.3395 22.2125 93.7271 22.899 93.3036 23.7926C92.8801 24.6862 92.6683 25.765 92.6683 27.0277C92.6683 28.3291 92.8735 29.4431 93.2851 30.3687C93.6955 31.2943 94.3089 32.005 95.1243 32.503C95.9397 33.0011 96.9548 33.2501 98.1675 33.2501C98.9512 33.2501 99.628 33.1763 100.197 33.0297C100.765 32.8832 101.23 32.6948 101.591 32.4645C101.951 32.2353 102.226 31.9797 102.416 31.6987C102.606 31.4177 102.719 31.1433 102.757 30.8756H108.56C108.485 31.7306 108.193 32.5703 107.688 33.3934C107.182 34.2165 106.481 34.957 105.583 35.6137C104.685 36.2715 103.595 36.7916 102.312 37.174C101.028 37.5563 99.5647 37.7481 97.9219 37.7481C95.6963 37.7481 93.7555 37.2985 92.0996 36.3982C90.4438 35.498 89.1601 34.254 88.2498 32.665C87.3394 31.0761 86.8843 29.2414 86.8843 27.1611C86.8843 25.0554 87.3493 23.2075 88.2782 21.6186C89.2071 20.0296 90.5027 18.7922 92.1662 17.9041C93.8286 17.0171 95.753 16.5741 97.9405 16.5741C100.178 16.5741 102.112 17.0237 103.743 17.9239C105.374 18.8242 106.632 20.0814 107.517 21.6957C108.402 23.31 108.844 25.1898 108.844 27.3341C108.844 27.6536 108.837 27.9599 108.825 28.253C108.812 28.5473 108.794 28.7632 108.769 28.9043H90.0705V28.9032Z" fill="white"/>
<path d="M119.37 37.7481C118.168 37.7481 117.012 37.607 115.9 37.3271C114.787 37.0461 113.792 36.6318 112.913 36.0831C112.035 35.5344 111.339 34.8479 110.827 34.0248C110.315 33.2016 110.059 32.2419 110.059 31.1433C110.059 31.0926 110.059 31.032 110.059 30.9615C110.059 30.891 110.059 30.837 110.059 30.7984H115.9C115.9 30.837 115.9 30.8778 115.9 30.9229C115.9 30.9681 115.9 31.0155 115.9 31.0662C115.9 31.8067 116.225 32.3488 116.877 32.6937C117.527 33.0386 118.409 33.2105 119.522 33.2105C120.104 33.2105 120.663 33.1499 121.201 33.0287C121.738 32.9074 122.18 32.7102 122.529 32.4347C122.876 32.1604 123.05 31.8122 123.05 31.3912C123.05 30.7147 122.68 30.2365 121.941 29.9555C121.201 29.6745 120.017 29.3935 118.385 29.1136C117.462 28.9605 116.526 28.7434 115.579 28.4624C114.63 28.1814 113.758 27.809 112.961 27.3429C112.164 26.8768 111.526 26.284 111.046 25.5622C110.565 24.8416 110.325 23.9634 110.325 22.9298C110.325 21.5513 110.739 20.3899 111.567 19.4456C112.395 18.5013 113.498 17.7862 114.877 17.3013C116.254 16.8165 117.772 16.5741 119.429 16.5741C121.009 16.5741 122.482 16.8385 123.847 17.3686C125.213 17.8986 126.318 18.6578 127.165 19.6462C128.012 20.6357 128.436 21.8257 128.436 23.2163C128.436 23.2416 128.436 23.2802 128.436 23.3309C128.436 23.3816 128.436 23.4334 128.436 23.4841H122.652C122.652 23.4334 122.652 23.3882 122.652 23.3496C122.652 23.3111 122.652 23.2791 122.652 23.2538C122.652 22.7436 122.49 22.3282 122.168 22.0097C121.846 21.6913 121.438 21.4511 120.945 21.2913C120.451 21.1315 119.939 21.0522 119.409 21.0522C118.929 21.0522 118.432 21.1062 117.92 21.2153C117.408 21.3244 116.975 21.5029 116.621 21.7508C116.268 21.9998 116.091 22.348 116.091 22.7943C116.091 23.2284 116.281 23.5821 116.659 23.8565C117.038 24.1309 117.57 24.3546 118.252 24.5264C118.934 24.6983 119.724 24.8614 120.623 25.0146C121.47 25.1556 122.364 25.3496 123.306 25.5986C124.248 25.8476 125.133 26.1991 125.96 26.652C126.788 27.1049 127.459 27.6988 127.971 28.4327C128.483 29.1665 128.739 30.0954 128.739 31.2182C128.739 32.3796 128.474 33.3757 127.943 34.2044C127.412 35.0341 126.694 35.7073 125.79 36.2241C124.886 36.7409 123.881 37.1244 122.775 37.3723C121.667 37.6235 120.533 37.7481 119.37 37.7481Z" fill="white"/>
<path d="M139.263 37.7481C138.061 37.7481 136.905 37.607 135.793 37.3271C134.681 37.0461 133.685 36.6318 132.807 36.0831C131.928 35.5344 131.233 34.8479 130.721 34.0248C130.209 33.2016 129.952 32.2419 129.952 31.1433C129.952 31.0926 129.952 31.032 129.952 30.9615C129.952 30.891 129.952 30.837 129.952 30.7984H135.793C135.793 30.837 135.793 30.8778 135.793 30.9229C135.793 30.9681 135.793 31.0155 135.793 31.0662C135.793 31.8067 136.118 32.3488 136.77 32.6937C137.42 33.0386 138.302 33.2105 139.416 33.2105C139.998 33.2105 140.556 33.1499 141.095 33.0287C141.632 32.9074 142.074 32.7102 142.422 32.4347C142.769 32.1604 142.944 31.8122 142.944 31.3912C142.944 30.7147 142.574 30.2365 141.835 29.9555C141.095 29.6745 139.91 29.3935 138.278 29.1136C137.355 28.9605 136.42 28.7434 135.472 28.4624C134.524 28.1814 133.651 27.809 132.855 27.3429C132.058 26.8768 131.419 26.284 130.939 25.5622C130.459 24.8416 130.218 23.9634 130.218 22.9298C130.218 21.5513 130.632 20.3899 131.461 19.4456C132.288 18.5013 133.392 17.7862 134.77 17.3013C136.148 16.8165 137.665 16.5741 139.322 16.5741C140.902 16.5741 142.375 16.8385 143.74 17.3686C145.106 17.8986 146.212 18.6578 147.059 19.6462C147.906 20.6357 148.329 21.8257 148.329 23.2163C148.329 23.2416 148.329 23.2802 148.329 23.3309C148.329 23.3816 148.329 23.4334 148.329 23.4841H142.545C142.545 23.4334 142.545 23.3882 142.545 23.3496C142.545 23.3111 142.545 23.2791 142.545 23.2538C142.545 22.7436 142.384 22.3282 142.062 22.0097C141.74 21.6913 141.331 21.4511 140.838 21.2913C140.345 21.1315 139.833 21.0522 139.302 21.0522C138.822 21.0522 138.325 21.1062 137.813 21.2153C137.301 21.3244 136.868 21.5029 136.514 21.7508C136.161 21.9998 135.984 22.348 135.984 22.7943C135.984 23.2284 136.174 23.5821 136.553 23.8565C136.931 24.1309 137.463 24.3546 138.145 24.5264C138.827 24.6983 139.618 24.8614 140.516 25.0146C141.363 25.1556 142.257 25.3496 143.199 25.5986C144.141 25.8476 145.026 26.1991 145.854 26.652C146.681 27.1049 147.352 27.6988 147.864 28.4327C148.376 29.1665 148.633 30.0954 148.633 31.2182C148.633 32.3796 148.367 33.3757 147.836 34.2044C147.305 35.0341 146.587 35.7073 145.683 36.2241C144.78 36.7409 143.774 37.1244 142.669 37.3723C141.561 37.6235 140.427 37.7481 139.263 37.7481Z" fill="white"/>
<path d="M156.813 0.602219L167.118 7.23451C167.979 7.78876 168.5 8.74741 168.5 9.77878V23.2064C168.5 23.3783 168.311 23.483 168.167 23.3904L157.919 16.8C157.061 16.2491 156.541 15.2948 156.536 14.269L156.479 0.787336C156.48 0.614339 156.668 0.50966 156.813 0.602219Z" fill="#FF5C06"/>
<path d="M156.759 46.6206L179.118 32.231C179.979 31.6767 180.5 30.7181 180.5 29.6867V16.259C180.5 16.0871 180.311 15.9825 180.167 16.075L168.463 23.6042L157.808 30.458C156.947 31.0123 156.425 31.9709 156.425 33.0023V46.4354C156.426 46.6084 156.615 46.7131 156.759 46.6206Z" fill="#FF5C06"/>
</svg>
